<svg xmlns="http://www.w3.org/2000/svg" xmlns:xlink="http://www.w3.org/1999/xlink" width="630.8259" height="320.6259" viewBox="0 0 630.8259 320.6259"><defs><style>.cls-1,.cls-11,.cls-3,.cls-4,.cls-5{fill:none;}.cls-1,.cls-5,.cls-7,.cls-8,.cls-9{stroke:#404040;}.cls-1,.cls-11{stroke-miterlimit:10;}.cls-2,.cls-8{fill:#ddd;}.cls-3{stroke:#000;stroke-miterlimit:20;opacity:0.2;}.cls-4{stroke:#ddd;}.cls-6{clip-path:url(#clip-path);}.cls-7{fill:#f8f8f8;}.cls-9{fill:#777;}.cls-10{fill:#fff;}.cls-11{stroke:#333;}.cls-12{fill:#333;}</style><clipPath id="clip-path"><path class="cls-1" d="M-210.582,210.4017h0l129.927-.1311,33.6372-.2852,22.596-.437,17.4605-.5859,14.6361-.7443,12.5818-.8929,11.298-1.0581,10.2709-1.2207,9.2439-1.3492,8.73-1.5262,8.2168-1.69,7.96-1.8982,7.4464-2.0313,7.19-2.2153,6.9329-2.3892,6.9329-2.6526,6.6761-2.8157,6.676-3.0822,6.4194-3.2224,6.4193-3.4812,6.4193-3.7424,6.4193-4.003,6.4193-4.26,6.6761-4.6962,6.9329-5.1506,7.19-5.6166,7.4464-6.0842,8.2167-6.9849,9.5006-8.3545,13.609-12.2728,17.46-15.7081,8.73-7.5764,7.4464-6.1922,6.4193-5.0761,5.9058-4.4118,5.649-3.9535,5.3922-3.5018,5.1355-3.0646,4.8786-2.648,4.622-2.2568,4.6219-1.999,4.6219-1.73,4.3651-1.3781,4.3651-1.1225,4.3652-.8611,4.3651-.5952,4.3651-.3264,4.3652-.0558,4.3651.2151,4.3652.4848,4.3651.7521,4.3651,1.0155,4.3652,1.2736,4.3651,1.5253,4.6219,1.8808,4.6219,2.1438,4.8787,2.5347,4.8787,2.7988L366.9,70.9071l5.3922,3.6445,5.649,4.0879,6.1626,4.738L390.78,88.79l7.4464,6.3151,8.987,7.9058,13.609,12.2832,16.947,15.2422,9.5006,8.2674,8.2167,6.884,7.4464,5.9757,7.19,5.4993,6.9329,5.0285,6.6761,4.5724,6.4193,4.1376L496.57,174.78l6.4193,3.6168,6.4193,3.3566,6.4194,3.1,6.6761,2.9581,6.676,2.6959,6.9329,2.5338,6.9329,2.2768,7.19,2.106,7.4464,1.9263,7.96,1.7956,8.2167,1.5943,8.73,1.436,9.5,1.2973,10.2709,1.1353,11.0413.9609,12.3251.8146,14.1225.6726,16.69.5314,20.7986.394,28.245.26,45.9623.132,89.6136.0283Z"/></clipPath></defs><g id="Layer_1" data-name="Layer 1"><path class="cls-2" d="M629.8106,1V209.978H1.0153V1H629.8106m1-1H.0153V210.978H630.8106V0Z"/><g id="grid-29bf1956"><line class="cls-3" x1="157.5425" x2="157.5425" y2="210.4151"/><line class="cls-3" x1="104.9555" x2="104.9555" y2="210.4151"/><line class="cls-3" x1="52.3685" y1="0.0899" x2="52.3685" y2="210.505"/><line class="cls-3" x1="-0.2186" y1="0.0899" x2="-0.2186" y2="210.505"/><line class="cls-3" x1="210.1296" x2="210.1296" y2="210.4151"/><line class="cls-3" x1="262.7166" x2="262.7166" y2="210.4151"/><line class="cls-3" x1="315.3037" x2="315.3037" y2="210.4151"/><line class="cls-3" x1="367.8907" x2="367.8907" y2="210.4151"/><line class="cls-3" x1="420.4778" x2="420.4778" y2="210.4151"/><line class="cls-3" x1="473.0648" x2="473.0648" y2="210.4151"/><line class="cls-3" x1="525.6518" x2="525.6518" y2="210.4151"/><line class="cls-3" x1="53.0258" y1="210.4151" x2="578.8962" y2="210.4151"/><line class="cls-3" x1="-0.2186" y1="157.8281" x2="630.8107" y2="157.8281"/><line class="cls-3" x1="-0.2186" y1="105.241" x2="630.8107" y2="105.241"/><line class="cls-3" x1="-0.2186" y1="52.654" x2="630.8107" y2="52.654"/><line class="cls-3" x1="578.2389" x2="578.2389" y2="210.4151"/><line class="cls-3" x1="630.8259" x2="630.8259" y2="210.4151"/><line class="cls-4" x1="157.5425" x2="157.5425" y2="210.4151"/><line class="cls-4" x1="157.5425" x2="157.5425" y2="210.4151"/><line class="cls-4" x1="104.9555" x2="104.9555" y2="210.4151"/><line class="cls-4" x1="104.9555" x2="104.9555" y2="210.4151"/><line class="cls-4" x1="52.3685" y1="0.0899" x2="52.3685" y2="210.505"/><line class="cls-4" x1="52.3685" y1="0.0899" x2="52.3685" y2="210.505"/><line class="cls-4" x1="-0.2186" y1="0.0899" x2="-0.2186" y2="210.505"/><line class="cls-4" x1="-0.2186" y1="0.0899" x2="-0.2186" y2="210.505"/><line class="cls-4" x1="210.1296" x2="210.1296" y2="210.4151"/><line class="cls-4" x1="210.1296" x2="210.1296" y2="210.4151"/><line class="cls-4" x1="262.7166" x2="262.7166" y2="210.4151"/><line class="cls-4" x1="262.7166" x2="262.7166" y2="210.4151"/><line class="cls-4" x1="315.3037" x2="315.3037" y2="210.4151"/><line class="cls-4" x1="315.3037" x2="315.3037" y2="210.4151"/><line class="cls-4" x1="367.8907" x2="367.8907" y2="210.4151"/><line class="cls-4" x1="367.8907" x2="367.8907" y2="210.4151"/><line class="cls-4" x1="420.4778" x2="420.4778" y2="210.4151"/><line class="cls-4" x1="420.4778" x2="420.4778" y2="210.4151"/><line class="cls-4" x1="473.0648" x2="473.0648" y2="210.4151"/><line class="cls-4" x1="473.0648" x2="473.0648" y2="210.4151"/><line class="cls-4" x1="525.6518" x2="525.6518" y2="210.4151"/><line class="cls-4" x1="525.6518" x2="525.6518" y2="210.4151"/><line class="cls-4" x1="53.0258" y1="210.4151" x2="578.8962" y2="210.4151"/><line class="cls-4" x1="53.0258" y1="210.4151" x2="578.8962" y2="210.4151"/><line class="cls-4" x1="-0.2186" y1="157.8281" x2="630.8107" y2="157.8281"/><line class="cls-4" x1="-0.2186" y1="157.8281" x2="630.8107" y2="157.8281"/><line class="cls-4" x1="-0.2186" y1="105.241" x2="630.8107" y2="105.241"/><line class="cls-4" x1="-0.2186" y1="105.241" x2="630.8107" y2="105.241"/><line class="cls-4" x1="-0.2186" y1="52.654" x2="630.8107" y2="52.654"/><line class="cls-4" x1="-0.2186" y1="52.654" x2="630.8107" y2="52.654"/><line class="cls-4" x1="578.2389" x2="578.2389" y2="210.4151"/><line class="cls-4" x1="578.2389" x2="578.2389" y2="210.4151"/><line class="cls-4" x1="630.8259" x2="630.8259" y2="210.4151"/><line class="cls-4" x1="630.8259" x2="630.8259" y2="210.4151"/></g><polyline class="cls-5" points="420.478 58.154 420.478 47.154 420.478 52.511 315.288 52.511 315.288 47.154 315.288 58.154"/></g><g id="Layer_2" data-name="Layer 2"><g class="cls-6"><rect class="cls-7" x="210.1143" width="210.3482" height="210.4017"/><rect class="cls-8" x="420.4625" y="0.0899" width="105.1741" height="210.3118"/><rect class="cls-8" x="104.9403" y="0.0899" width="105.1741" height="210.3118"/><rect class="cls-9" x="-0.2338" y="0.0899" width="105.1741" height="210.3118"/><rect class="cls-9" x="525.6366" width="105.1741" height="210.4017"/></g><path class="cls-1" d="M-210.582,210.4017h0l129.927-.1311,33.6372-.2852,22.596-.437,17.4605-.5859,14.6361-.7443,12.5818-.8929,11.298-1.0581,10.2709-1.2207,9.2439-1.3492,8.73-1.5262,8.2168-1.69,7.96-1.8982,7.4464-2.0313,7.19-2.2153,6.9329-2.3892,6.9329-2.6526,6.6761-2.8157,6.676-3.0822,6.4194-3.2224,6.4193-3.4812,6.4193-3.7424,6.4193-4.003,6.4193-4.26,6.6761-4.6962,6.9329-5.1506,7.19-5.6166,7.4464-6.0842,8.2167-6.9849,9.5006-8.3545,13.609-12.2728,17.46-15.7081,8.73-7.5764,7.4464-6.1922,6.4193-5.0761,5.9058-4.4118,5.649-3.9535,5.3922-3.5018,5.1355-3.0646,4.8786-2.648,4.622-2.2568,4.6219-1.999,4.6219-1.73,4.3651-1.3781,4.3651-1.1225,4.3652-.8611,4.3651-.5952,4.3651-.3264,4.3652-.0558,4.3651.2151,4.3652.4848,4.3651.7521,4.3651,1.0155,4.3652,1.2736,4.3651,1.5253,4.6219,1.8808,4.6219,2.1438,4.8787,2.5347,4.8787,2.7988L366.9,70.9071l5.3922,3.6445,5.649,4.0879,6.1626,4.738L390.78,88.79l7.4464,6.3151,8.987,7.9058,13.609,12.2832,16.947,15.2422,9.5006,8.2674,8.2167,6.884,7.4464,5.9757,7.19,5.4993,6.9329,5.0285,6.6761,4.5724,6.4193,4.1376L496.57,174.78l6.4193,3.6168,6.4193,3.3566,6.4194,3.1,6.6761,2.9581,6.676,2.6959,6.9329,2.5338,6.9329,2.2768,7.19,2.106,7.4464,1.9263,7.96,1.7956,8.2167,1.5943,8.73,1.436,9.5,1.2973,10.2709,1.1353,11.0413.9609,12.3251.8146,14.1225.6726,16.69.5314,20.7986.394,28.245.26,45.9623.132,89.6136.0283Z"/><line class="cls-1" x1="315.2884" y1="210.4025" x2="315.2884" y2="52.9266"/><rect class="cls-10" x="442.0101" y="95.9716" width="62.1093" height="23.3086"/><rect class="cls-10" x="126.4879" y="95.9716" width="62.1093" height="23.3086"/><rect class="cls-10" x="21.3138" y="95.9716" width="62.1093" height="23.3086"/><rect class="cls-10" x="547.1842" y="95.9716" width="62.1093" height="23.3086"/><polyline class="cls-11" points="420.762 223.545 420.762 230.565 210.414 230.565 210.414 223.545"/><rect class="cls-10" x="283.2885" y="214.8691" width="64" height="30"/><polyline class="cls-11" points="525.652 223.545 525.652 262.157 104.956 262.157 104.956 223.545"/><rect class="cls-10" x="283.2885" y="247.8691" width="64" height="30"/><path class="cls-12" d="M296.1655,222.8044a2.0809,2.0809,0,0,0-1.3643-.55,3.1511,3.1511,0,0,0-2.5742,1.3193,7.6444,7.6444,0,0,0-1.0332,4.4444l.0215.0878.1757-.2861a2.8144,2.8144,0,0,1,2.4424-1.3193,3.682,3.682,0,0,1,1.7822.4179,4.5581,4.5581,0,0,1,1.0557.8907,5.5381,5.5381,0,0,1,.8584,1.2431,5.9218,5.9218,0,0,1,.4619,2.3535v.3965a3.9,3.9,0,0,1-.11.9463,4.9521,4.9521,0,0,1-1.3633,2.4414,4.0466,4.0466,0,0,1-2.1133,1.2324,3.6971,3.6971,0,0,1-.8789.0879,3.826,3.826,0,0,1-.748-.0664,3.8932,3.8932,0,0,1-2.5957-1.76,10.2611,10.2611,0,0,1-1.2989-5.544,9.7082,9.7082,0,0,1,.836-4.1582,6.5869,6.5869,0,0,1,2.332-2.7715,4.3823,4.3823,0,0,1,2.5742-.8359,3.0165,3.0165,0,0,1,2.0567.6816,2.3524,2.3524,0,0,1,.7812,1.87,1.2147,1.2147,0,0,1-.3184.88,1.127,1.127,0,0,1-.8476.33,1.1637,1.1637,0,0,1-.8467-.3086,1.1351,1.1351,0,0,1-.3193-.8574A1.0881,1.0881,0,0,1,296.1655,222.8044Zm-.9678,5.28a1.92,1.92,0,0,0-1.584-.792,1.7841,1.7841,0,0,0-1.32.5058,4.7657,4.7657,0,0,0-1.0781,3.4756,9.3233,9.3233,0,0,0,.2636,2.7061,2.5269,2.5269,0,0,0,.7481,1.122,1.8446,1.8446,0,0,0,1.2539.4619,1.9765,1.9765,0,0,0,1.7168-.8359,2.4318,2.4318,0,0,0,.4179-1.1,14.5667,14.5667,0,0,0,.0879-1.8486v-.7041a15.0215,15.0215,0,0,0-.0879-1.8916A2.4318,2.4318,0,0,0,295.1977,228.0847Z"/><path class="cls-12" d="M302.7436,228.6559a6.517,6.517,0,0,1-1.6612-1.4736,3.7749,3.7749,0,0,1-.23-3.6084,3.9183,3.9183,0,0,1,1.4179-1.5947,3.8621,3.8621,0,0,1,2.1456-.6045,4.3681,4.3681,0,0,1,2.5957.78,3.2482,3.2482,0,0,1,1.3642,2.0136,3.9923,3.9923,0,0,1,.0215.5274,3.2474,3.2474,0,0,1-.043.66,4.1184,4.1184,0,0,1-2.0019,2.5079l-.2647.1767q1.2319.8364,1.2764.88a4.0439,4.0439,0,0,1,1.65,3.2773,4.0891,4.0891,0,0,1-1.31,3.0479,4.5175,4.5175,0,0,1-3.2666,1.2646,4.3973,4.3973,0,0,1-3.9824-1.98,3.2672,3.2672,0,0,1-.5508-1.9141Q299.9047,230.22,302.7436,228.6559Zm-1.4307,3.9161a2.7564,2.7564,0,0,0,.9463,2.1455,3.1982,3.1982,0,0,0,2.2.8466,3.5585,3.5585,0,0,0,1.6387-.374,2.7309,2.7309,0,0,0,1.1113-.9677,2.1752,2.1752,0,0,0,.374-1.21,2.2353,2.2353,0,0,0-.77-1.6719q-.1758-.1758-1.8262-1.2539-.3075-.1977-.67-.43-.3633-.23-.5615-.3623l-.1758-.11-.2646.1318a4.2844,4.2844,0,0,0-1.8262,2.2A3.6167,3.6167,0,0,0,301.3129,232.572Zm5.8086-7.8321a2.2648,2.2648,0,0,0-.6162-1.6054,2.73,2.73,0,0,0-1.4961-.836,6.9581,6.9581,0,0,0-.7256-.0224,2.6626,2.6626,0,0,0-1.958.792,1.5879,1.5879,0,0,0-.55,1.21,1.729,1.729,0,0,0,.791,1.4961q.1113.1113,1.4082.9238l1.2764.836c.0146-.0137.11-.0762.2861-.1865a2.3273,2.3273,0,0,0,.3965-.2969A2.86,2.86,0,0,0,307.1215,224.74Z"/><path class="cls-12" d="M311.6752,234.7067a1.2792,1.2792,0,0,1,1.32-1.32,1.3033,1.3033,0,0,1,.9571.3848,1.2479,1.2479,0,0,1,.3847.9131,1.3311,1.3311,0,0,1-2.6621.0224Z"/><path class="cls-12" d="M318.87,225.8405a1.2054,1.2054,0,0,1-.9356-.374,1.3834,1.3834,0,0,1-.34-.9678,2.6587,2.6587,0,0,1,.9892-2.1015,4.2083,4.2083,0,0,1,2.2881-1.001h.33q.7706,0,.9678.0224a5.3542,5.3542,0,0,1,1.4746.462,3.2728,3.2728,0,0,1,1.8252,2.0673,2.1117,2.1117,0,0,1,.0664.5948,3.6577,3.6577,0,0,1-.8028,2.32,4.4434,4.4434,0,0,1-2.0136,1.4629c-.0733.03-.0733.0517,0,.0664a1.4076,1.4076,0,0,0,.2207.0664,4.6865,4.6865,0,0,1,2.2656,1.3965,3.37,3.37,0,0,1,.9238,2.3213,3.8455,3.8455,0,0,1-.4179,1.7382,4.3581,4.3581,0,0,1-1.7266,1.8584,5.0065,5.0065,0,0,1-2.6738.7373,5.2669,5.2669,0,0,1-2.5733-.6162,3.1705,3.1705,0,0,1-1.5185-1.65,2.4808,2.4808,0,0,1-.22-1.0771,1.3144,1.3144,0,0,1,.4073-1.001,1.4615,1.4615,0,0,1,1.99.0108,1.34,1.34,0,0,1,.3965.99,1.4138,1.4138,0,0,1-.2852.88,1.3034,1.3034,0,0,1-.77.4834l-.1543.0439a4.1378,4.1378,0,0,0,2.7276.99,1.963,1.963,0,0,0,1.8261-1.166,5.0418,5.0418,0,0,0,.3741-2.2216v-.4405a2.8176,2.8176,0,0,0-1.4073-2.7939,4.624,4.624,0,0,0-1.3418-.1533l-.9238-.0225-.0664-.0439a.8115.8115,0,0,1-.0449-.3516.52.52,0,0,1,.0664-.33.1823.1823,0,0,1,.11-.0664,7.6808,7.6808,0,0,0,1.2764-.11,1.9055,1.9055,0,0,0,1.4736-1.0889,4.8636,4.8636,0,0,0,.5059-2.2988,2.0938,2.0938,0,0,0-.7695-1.9141,1.8275,1.8275,0,0,0-1.0342-.3076,3.2485,3.2485,0,0,0-1.9356.5937.9561.9561,0,0,0-.1992.1426,1.44,1.44,0,0,0-.1758.1875l-.0664.0879c.045.0146.0957.0293.1543.0439a1.0507,1.0507,0,0,1,.7373.418,1.3426,1.3426,0,0,1,.2969.8584,1.21,1.21,0,0,1-.3623.8906A1.2673,1.2673,0,0,1,318.87,225.8405Z"/><path class="cls-12" d="M339.8578,222.1667a6.1062,6.1062,0,0,1-2.5517.55,7.01,7.01,0,0,1-2.9268-.66,1.0661,1.0661,0,0,1-.1318-.0547c-.044-.0224-.0811-.041-.11-.0556l-.0439-.0215a1.5608,1.5608,0,0,0,.0664.1982,6.6434,6.6434,0,0,1,.22,1.8477,5.5312,5.5312,0,0,1-.8574,3.1895,2.3641,2.3641,0,0,1-2.002,1.2324,2.7476,2.7476,0,0,1-1.4521-.4844,4.4322,4.4322,0,0,1-1.76-3.9375,5.2631,5.2631,0,0,1,.8135-2.97,2.99,2.99,0,0,1,2.0244-1.4307,2.6245,2.6245,0,0,1,.374-.0439,2.127,2.127,0,0,1,1.54.6826,6.63,6.63,0,0,0,3.4541,1.6719,7.3505,7.3505,0,0,0,.7695.0214c.4248,0,.69-.0068.792-.0214a5.0348,5.0348,0,0,0,3.3-1.9581.78.78,0,0,0,.1-.1318.76.76,0,0,1,.0762-.11.6275.6275,0,0,0,.0557-.0664.1474.1474,0,0,1,.0654-.0547.805.805,0,0,1,.0879-.0215.5862.5862,0,0,1,.1211-.0117.4163.4163,0,0,1,.33.1543.4781.4781,0,0,1,.11.374q-11.3306,17.0069-11.5059,17.1162a.2986.2986,0,0,1-.2207.0879.4573.4573,0,0,1-.3183-.1319.4076.4076,0,0,1-.1436-.3085.3914.3914,0,0,1,.0664-.1973q.022-.0674,4.8623-7.2822,2.3305-3.4761,3.5743-5.3243T339.8578,222.1667Zm-7.3925-1.3867a1.3529,1.3529,0,0,0-.9893-.418,1.0873,1.0873,0,0,0-.8145.418,2.4809,2.4809,0,0,0-.55,1.1884,11.5858,11.5858,0,0,0-.1318,2.002,11.023,11.023,0,0,0,.1426,2.0234,2.2063,2.2063,0,0,0,.583,1.1661,1.1759,1.1759,0,0,0,.8359.3964h.0879a1.2058,1.2058,0,0,0,.836-.4179,5.404,5.404,0,0,0,0-6.3584Zm5.61,12.0341a5.2118,5.2118,0,0,1,.8145-2.9589,2.9933,2.9933,0,0,1,2.0234-1.419,2.6522,2.6522,0,0,1,.3965-.0439,2.4313,2.4313,0,0,1,1.9795,1.21,5.6344,5.6344,0,0,1,.8584,3.2119,5.5677,5.5677,0,0,1-.8584,3.212,2.366,2.366,0,0,1-2.002,1.2324,2.7577,2.7577,0,0,1-1.4521-.4844A4.4593,4.4593,0,0,1,338.0756,232.8141Zm4.1582-3.1679a1.3569,1.3569,0,0,0-.99-.418,1.0889,1.0889,0,0,0-.8145.418,2.316,2.316,0,0,0-.55,1.1328,13.2311,13.2311,0,0,0-.1094,2.0351,11.7951,11.7951,0,0,0,.1094,2.002,1.9658,1.9658,0,0,0,1.0567,1.5625,1.2349,1.2349,0,0,0,.374.0439h.0879a1.2073,1.2073,0,0,0,.8359-.4179,5.4036,5.4036,0,0,0,0-6.3584Z"/><path class="cls-12" d="M291.766,267.3591a1.2494,1.2494,0,0,1-.2314.77.94.94,0,0,1-.6045.374l-.0889.0215c0,.0146.0518.0547.1543.1211a.8978.8978,0,0,0,.2422.1211,3.1486,3.1486,0,0,0,1.2539.22,2.4574,2.4574,0,0,0,.5723-.0439,3.01,3.01,0,0,0,1.7822-1.3643,7.8177,7.8177,0,0,0,.8574-4.2676v-.1543l-.11.1758a2.8106,2.8106,0,0,1-2.5293,1.4961,3.73,3.73,0,0,1-2.9922-1.5176,4.7688,4.7688,0,0,1-1.1885-3.4316,5.4605,5.4605,0,0,1,.3418-2.0908,5.276,5.276,0,0,1,1.1768-1.6495,4.3474,4.3474,0,0,1,2.7275-1.2978l.0664-.0225h.11c.0283,0,.0762.0039.1426.0108a1.4588,1.4588,0,0,0,.165.0117,3.0714,3.0714,0,0,1,.6377.0439,4.1656,4.1656,0,0,1,2.7939,2.2657,11.2487,11.2487,0,0,1,.9463,4.9716,9.7321,9.7321,0,0,1-1.32,5.2149,6.0043,6.0043,0,0,1-1.8584,1.9248,4.1812,4.1812,0,0,1-2.2773.6924,3.5748,3.5748,0,0,1-2.2334-.6485,2.2258,2.2258,0,0,1-.8467-1.8808q0-1.232,1.166-1.2324a1.08,1.08,0,0,1,1.1445,1.166Zm2.2217-11.5938a3.3288,3.3288,0,0,0-.6162-.0439,1.9491,1.9491,0,0,0-1.43.5937,2.35,2.35,0,0,0-.6054,1.1553,12.5653,12.5653,0,0,0-.1426,2.2988,19.9327,19.9327,0,0,0,.11,2.376,2.1979,2.1979,0,0,0,.6485,1.3525,1.9045,1.9045,0,0,0,1.375.5176h.0879a2.0237,2.0237,0,0,0,1.7275-1.2431,6.4043,6.4043,0,0,0,.5391-2.7608,12.0338,12.0338,0,0,0-.1768-2.4639,2.3615,2.3615,0,0,0-.5391-1.1445A1.8422,1.8422,0,0,0,293.9877,255.7653Z"/><path class="cls-12" d="M301.3139,264.7634a1.2139,1.2139,0,0,1,.8906.3623,1.2386,1.2386,0,0,1,.3633.9131,1.1346,1.1346,0,0,1-.374.8584,1.1939,1.1939,0,0,1-.836.3515h-.1543l.0664.11a2.85,2.85,0,0,0,1.0118,1.166,2.7969,2.7969,0,0,0,1.6064.4619,2.3347,2.3347,0,0,0,2.2432-1.32,6.7086,6.7086,0,0,0,.4179-2.8154,5.4746,5.4746,0,0,0-.5937-3.0586,1.7337,1.7337,0,0,0-1.4082-.7256,2.8343,2.8343,0,0,0-2.5957,1.4961.419.419,0,0,1-.1651.1865.96.96,0,0,1-.3193.0332c-.249,0-.3887-.0439-.418-.1318q-.0439-.0879-.0439-3.85,0-.6607-.0107-1.5625c-.0079-.6006-.0108-.9825-.0108-1.1436q0-1.2319.1318-1.2324a.1267.1267,0,0,1,.0879-.044l.3965.1319a7.8,7.8,0,0,0,2.9258.5722,7.481,7.481,0,0,0,2.9922-.6162.682.682,0,0,1,.2861-.0879q.1758,0,.1758.3965v.2852a5.6269,5.6269,0,0,1-4.5107,2.1347,5.2911,5.2911,0,0,1-1.2315-.1318l-.22-.0449v3.7842a3.77,3.77,0,0,1,3.4756-.9014,4.1663,4.1663,0,0,1,2.4092,1.6719,5.0581,5.0581,0,0,1,.9345,3.0361,4.8155,4.8155,0,0,1-1.3965,3.4541,4.59,4.59,0,0,1-3.4433,1.4512,3.664,3.664,0,0,1-2.3535-.77,2.4284,2.4284,0,0,1-.7266-.7265,3.8955,3.8955,0,0,1-.8359-1.958c0-.044-.0039-.1133-.0108-.209s-.0107-.1651-.0107-.209a1.3107,1.3107,0,0,1,.3515-.9678A1.222,1.222,0,0,1,301.3139,264.7634Z"/><path class="cls-12" d="M311.6752,268.1511a1.2792,1.2792,0,0,1,1.32-1.32,1.3006,1.3006,0,0,1,.9571.3857,1.2463,1.2463,0,0,1,.3847.9131,1.3311,1.3311,0,0,1-2.6621.0215Z"/><path class="cls-12" d="M326.24,269.4714q-.3092-.066-2.8379-.0664-2.64,0-2.9483.0664h-.1972v-1.0127h.6816a4.6262,4.6262,0,0,0,1.166-.1094.3933.3933,0,0,0,.2637-.22q.022-.0439.0225-1.1885v-1.1h-5.6983v-1.0127l3.3223-5.082q3.3648-5.1036,3.4092-5.126a1.16,1.16,0,0,1,.4619-.044h.3965l.1318.1319v10.12h2.0244v1.0127h-2.0244v1.1221q0,.9022.0107,1.0556a.4054.4054,0,0,0,.1211.2637,2.7854,2.7854,0,0,0,1.2539.1758h.6387v1.0127Zm-3.7178-4.6426v-7.3477l-4.8184,7.3262,2.3985.0215Z"/><path class="cls-12" d="M339.8578,255.611a6.0907,6.0907,0,0,1-2.5517.55,7.011,7.011,0,0,1-2.9268-.66.846.846,0,0,1-.1318-.0547c-.044-.0215-.0811-.04-.11-.0547l-.0439-.0225a1.567,1.567,0,0,0,.0664.1983,6.6521,6.6521,0,0,1,.22,1.8476,5.5343,5.5343,0,0,1-.8574,3.1905,2.366,2.366,0,0,1-2.002,1.2324,2.7555,2.7555,0,0,1-1.4521-.4844,4.4339,4.4339,0,0,1-1.76-3.9385,5.2631,5.2631,0,0,1,.8135-2.97,2.9889,2.9889,0,0,1,2.0244-1.43,2.6245,2.6245,0,0,1,.374-.0439,2.13,2.13,0,0,1,1.54.6816,6.6288,6.6288,0,0,0,3.4541,1.6719,7.2068,7.2068,0,0,0,.7695.0225c.4248,0,.69-.0079.792-.0225a5.0272,5.0272,0,0,0,3.3-1.958.7858.7858,0,0,0,.1-.1319.833.833,0,0,1,.0762-.11.5875.5875,0,0,0,.0557-.0654.141.141,0,0,1,.0654-.0547.7987.7987,0,0,1,.0879-.0225.6679.6679,0,0,1,.1211-.0107.4184.4184,0,0,1,.33.1533.4792.4792,0,0,1,.11.374q-11.3306,17.0068-11.5059,17.1162a.2986.2986,0,0,1-.2207.0879.4572.4572,0,0,1-.3183-.1318.4058.4058,0,0,1-.1436-.3076.3975.3975,0,0,1,.0664-.1983q.022-.0658,4.8623-7.2822,2.3305-3.4761,3.5743-5.3242T339.8578,255.611Zm-7.3925-1.3857a1.3533,1.3533,0,0,0-.9893-.418,1.0877,1.0877,0,0,0-.8145.418,2.4773,2.4773,0,0,0-.55,1.1875,11.5837,11.5837,0,0,0-.1318,2.0019,11.0345,11.0345,0,0,0,.1426,2.0244,2.2063,2.2063,0,0,0,.583,1.1661,1.1786,1.1786,0,0,0,.8359.3955h.0879a1.2019,1.2019,0,0,0,.836-.418,5.4025,5.4025,0,0,0,0-6.3574Zm5.61,12.0342a5.2079,5.2079,0,0,1,.8145-2.959,2.99,2.99,0,0,1,2.0234-1.419,2.6522,2.6522,0,0,1,.3965-.0439,2.4313,2.4313,0,0,1,1.9795,1.21,5.6322,5.6322,0,0,1,.8584,3.212,5.5676,5.5676,0,0,1-.8584,3.2119,2.3649,2.3649,0,0,1-2.002,1.2314,2.7557,2.7557,0,0,1-1.4521-.4834A4.46,4.46,0,0,1,338.0756,266.26Zm4.1582-3.168a1.3569,1.3569,0,0,0-.99-.418,1.0889,1.0889,0,0,0-.8145.418,2.3118,2.3118,0,0,0-.55,1.1328,13.2317,13.2317,0,0,0-.1094,2.0352,11.8091,11.8091,0,0,0,.1094,2.0019,1.9622,1.9622,0,0,0,1.0567,1.5615,1.2344,1.2344,0,0,0,.374.044h.0879a1.2074,1.2074,0,0,0,.8359-.418,5.4021,5.4021,0,0,0,0-6.3574Z"/><polyline class="cls-11" points="630.326 223.545 630.326 297.259 0.5 297.259 0.5 223.545"/><rect class="cls-10" x="283.2885" y="281.8691" width="64" height="30"/><path class="cls-12" d="M291.766,304.97a1.2552,1.2552,0,0,1-.23.7705.9423.9423,0,0,1-.6055.374l-.0879.0215c0,.0147.0508.0547.1543.1211a.8908.8908,0,0,0,.2412.1211,3.1571,3.1571,0,0,0,1.2549.22,2.4413,2.4413,0,0,0,.5713-.0439,3.01,3.01,0,0,0,1.7822-1.3643,7.8071,7.8071,0,0,0,.8584-4.2676v-.1542l-.11.1757a2.8111,2.8111,0,0,1-2.53,1.4961,3.7308,3.7308,0,0,1-2.9922-1.5176,4.7739,4.7739,0,0,1-1.1875-3.4316,5.4624,5.4624,0,0,1,.3408-2.0908,5.291,5.291,0,0,1,1.1768-1.6494,4.3482,4.3482,0,0,1,2.7285-1.2979l.0654-.0224h.11c.0293,0,.0771.0039.1426.0107a1.4588,1.4588,0,0,0,.165.0117,3.0809,3.0809,0,0,1,.6387.044,4.1673,4.1673,0,0,1,2.7939,2.2656,11.2633,11.2633,0,0,1,.9463,4.9717,9.7318,9.7318,0,0,1-1.32,5.2148,5.9966,5.9966,0,0,1-1.8594,1.9248,4.176,4.176,0,0,1-2.2764.6924,3.5738,3.5738,0,0,1-2.2334-.6484,2.2263,2.2263,0,0,1-.8466-1.8809q0-1.232,1.166-1.2324a1.08,1.08,0,0,1,1.1435,1.166Zm2.2217-11.5938a3.3255,3.3255,0,0,0-.6152-.0439,1.9526,1.9526,0,0,0-1.4307.5938,2.3491,2.3491,0,0,0-.6045,1.1552,12.553,12.553,0,0,0-.1435,2.2989,20.1476,20.1476,0,0,0,.11,2.3759,2.2,2.2,0,0,0,.6494,1.3526,1.9036,1.9036,0,0,0,1.375.5175h.0879a2.0211,2.0211,0,0,0,1.7266-1.2431,6.39,6.39,0,0,0,.5391-2.7608,12.05,12.05,0,0,0-.1758-2.4638,2.3632,2.3632,0,0,0-.5391-1.1446A1.8446,1.8446,0,0,0,293.9877,293.3766Z"/><path class="cls-12" d="M302.766,304.97a1.2552,1.2552,0,0,1-.23.7705.9423.9423,0,0,1-.6055.374l-.0879.0215c0,.0147.0508.0547.1543.1211a.8908.8908,0,0,0,.2412.1211,3.1571,3.1571,0,0,0,1.2549.22,2.4413,2.4413,0,0,0,.5713-.0439,3.01,3.01,0,0,0,1.7822-1.3643,7.8071,7.8071,0,0,0,.8584-4.2676v-.1542l-.11.1757a2.8111,2.8111,0,0,1-2.53,1.4961,3.7308,3.7308,0,0,1-2.9922-1.5176,4.7739,4.7739,0,0,1-1.1875-3.4316,5.4624,5.4624,0,0,1,.3408-2.0908,5.291,5.291,0,0,1,1.1768-1.6494,4.3482,4.3482,0,0,1,2.7285-1.2979l.0654-.0224h.11c.0293,0,.0771.0039.1426.0107a1.4588,1.4588,0,0,0,.165.0117,3.0809,3.0809,0,0,1,.6387.044,4.1673,4.1673,0,0,1,2.7939,2.2656,11.2633,11.2633,0,0,1,.9463,4.9717,9.7318,9.7318,0,0,1-1.32,5.2148,5.9966,5.9966,0,0,1-1.8594,1.9248,4.176,4.176,0,0,1-2.2764.6924,3.5738,3.5738,0,0,1-2.2334-.6484,2.2263,2.2263,0,0,1-.8466-1.8809q0-1.232,1.166-1.2324a1.08,1.08,0,0,1,1.1435,1.166Zm2.2217-11.5938a3.3255,3.3255,0,0,0-.6152-.0439,1.9526,1.9526,0,0,0-1.4307.5938,2.3491,2.3491,0,0,0-.6045,1.1552,12.553,12.553,0,0,0-.1435,2.2989,20.1476,20.1476,0,0,0,.11,2.3759,2.2,2.2,0,0,0,.6494,1.3526,1.9036,1.9036,0,0,0,1.375.5175h.0879a2.0211,2.0211,0,0,0,1.7266-1.2431,6.39,6.39,0,0,0,.5391-2.7608,12.05,12.05,0,0,0-.1758-2.4638,2.3632,2.3632,0,0,0-.5391-1.1446A1.8446,1.8446,0,0,0,304.9877,293.3766Z"/><path class="cls-12" d="M311.6762,305.7624a1.2792,1.2792,0,0,1,1.32-1.32,1.3,1.3,0,0,1,.957.3857,1.25,1.25,0,0,1,.3848.9131,1.3311,1.3311,0,0,1-2.6621.0215Z"/><path class="cls-12" d="M317.2865,297.0065q.022-.044.3741-2.3984l.3515-2.3535c0-.0293.1465-.044.4405-.044h.4394v.0879q0,.22.33.374a3.4639,3.4639,0,0,0,1.1553.1983q.8247.044,3.707.0439h2.6621v.8575l-1.4961,2.0459q-.33.4627-.748,1.0234t-.6377.8691c-.1465.2051-.2354.33-.2637.3741a10.15,10.15,0,0,0-1.3643,4.7734q-.0879.9024-.11,2.4648,0,.3077-.0108.627c-.0078.2119-.0107.3848-.0107.5166v.1982a1.1211,1.1211,0,0,1-.43.6377,1.1806,1.1806,0,0,1-.7373.2637,1.0745,1.0745,0,0,1-.8467-.3623,1.4649,1.4649,0,0,1-.3193-1.001q0-.3311.0889-1.2539a15.3674,15.3674,0,0,1,2.0459-5.9629q.4393-.7031,1.8476-2.6611l1.0127-1.3867H322.72a25.8642,25.8642,0,0,0-4.0253.1318c-.06.03-.14.1914-.2422.4844a7.4213,7.4213,0,0,0-.2207,1.0342,2.5885,2.5885,0,0,1-.0655.4179v.0664h-.88Z"/><path class="cls-12" d="M339.8588,293.2224a6.0923,6.0923,0,0,1-2.5517.55,7.0108,7.0108,0,0,1-2.9268-.66.8364.8364,0,0,1-.1318-.0547c-.044-.0215-.0811-.04-.11-.0547l-.0439-.0224a1.5608,1.5608,0,0,0,.0664.1982,6.6523,6.6523,0,0,1,.22,1.8477,5.534,5.534,0,0,1-.8574,3.19,2.366,2.366,0,0,1-2.002,1.2324,2.7552,2.7552,0,0,1-1.4521-.4844,4.4336,4.4336,0,0,1-1.76-3.9384,5.2634,5.2634,0,0,1,.8135-2.97,2.9889,2.9889,0,0,1,2.0244-1.43,2.64,2.64,0,0,1,.374-.0439,2.13,2.13,0,0,1,1.54.6816,6.6277,6.6277,0,0,0,3.4541,1.6719,7.1776,7.1776,0,0,0,.7695.0225c.4248,0,.6894-.0078.792-.0225a5.0274,5.0274,0,0,0,3.3-1.958.7844.7844,0,0,0,.1-.1318.82.82,0,0,1,.0762-.11.5691.5691,0,0,0,.0556-.0654.1416.1416,0,0,1,.0655-.0547.8158.8158,0,0,1,.0879-.0225.6679.6679,0,0,1,.1211-.0107.4185.4185,0,0,1,.33.1533.4794.4794,0,0,1,.11.374q-11.3305,17.0068-11.5059,17.1163a.2987.2987,0,0,1-.2207.0878.457.457,0,0,1-.3183-.1318.4058.4058,0,0,1-.1436-.3076.3969.3969,0,0,1,.0664-.1982q.0221-.066,4.8623-7.2823,2.3306-3.4761,3.5742-5.3242T339.8588,293.2224Zm-7.3926-1.3858a1.353,1.353,0,0,0-.9892-.418,1.0874,1.0874,0,0,0-.8145.418,2.4781,2.4781,0,0,0-.55,1.1875,11.5741,11.5741,0,0,0-.1318,2.002,11.0352,11.0352,0,0,0,.1426,2.0244,2.206,2.206,0,0,0,.583,1.166,1.1779,1.1779,0,0,0,.8359.3955h.0879a1.2015,1.2015,0,0,0,.8359-.418,5.4021,5.4021,0,0,0,0-6.3574Zm5.61,12.0342a5.2086,5.2086,0,0,1,.8144-2.959,2.99,2.99,0,0,1,2.0235-1.4189,2.6554,2.6554,0,0,1,.3965-.044,2.4312,2.4312,0,0,1,1.98,1.21,5.6321,5.6321,0,0,1,.8584,3.2119,5.5672,5.5672,0,0,1-.8584,3.2119,2.3649,2.3649,0,0,1-2.002,1.2314,2.7564,2.7564,0,0,1-1.4521-.4833A4.4606,4.4606,0,0,1,338.0766,303.8708Zm4.1582-3.168a1.3568,1.3568,0,0,0-.99-.4179,1.0888,1.0888,0,0,0-.8145.4179,2.3105,2.3105,0,0,0-.55,1.1328,13.2317,13.2317,0,0,0-.1094,2.0352,11.8091,11.8091,0,0,0,.1094,2.0019,1.9624,1.9624,0,0,0,1.0566,1.5616,1.2357,1.2357,0,0,0,.3741.0439h.0879a1.207,1.207,0,0,0,.8359-.418,5.4021,5.4021,0,0,0,0-6.3574Z"/><path class="cls-12" d="M557.683,104.4518a1.2275,1.2275,0,0,1-.9677-.3955,1.4034,1.4034,0,0,1-.3526-.9677,3.6071,3.6071,0,0,1,1.1992-2.7178,4.0339,4.0339,0,0,1,2.8711-1.1328,4.768,4.768,0,0,1,3.1348,1.0234,4.2977,4.2977,0,0,1,1.5293,2.6729,6.6119,6.6119,0,0,1,.0439.7256,4.1612,4.1612,0,0,1-.77,2.3984,14.6051,14.6051,0,0,1-2.4853,2.53q-.7925.6811-2.2,2.0234l-1.2979,1.2324,1.6719.0215a26.4742,26.4742,0,0,0,3.6738-.1094q.0879-.0219.22-.4629a13.998,13.998,0,0,0,.3086-1.4951v-.0664h.88v.0664l-.6162,4.0254v.0664h-8.1621v-.4179a1.4783,1.4783,0,0,1,.044-.5059q.0219-.022,1.8486-2.0908,2.3965-2.6616,3.0791-3.52a6.3828,6.3828,0,0,0,1.4746-3.6738,3.8521,3.8521,0,0,0-.7588-2.4316,2.5346,2.5346,0,0,0-2.123-.9785,2.4152,2.4152,0,0,0-2.0684,1.1435c-.0293.06-.0732.14-.1318.2422a.5213.5213,0,0,0-.0664.1318c0,.0147.0371.0225.11.0225a1.12,1.12,0,0,1,.8906.3955,1.3741,1.3741,0,0,1,.3418.9248,1.3126,1.3126,0,0,1-.3632.9346A1.2546,1.2546,0,0,1,557.683,104.4518Z"/><path class="cls-12" d="M567.9789,112.57a1.2794,1.2794,0,0,1,1.32-1.32,1.3006,1.3006,0,0,1,.9571.3857,1.25,1.25,0,0,1,.3847.9131,1.3311,1.3311,0,0,1-2.6621.0215Z"/><path class="cls-12" d="M581.5307,113.89q-.3735-.0658-3.4981-.0664-3.079,0-3.4531.0664h-.2646v-1.0127h.5722a12.4651,12.4651,0,0,0,1.65-.0654,1.4211,1.4211,0,0,0,.5274-.2637v-11.374a.5261.5261,0,0,0-.1758.0654,6.4952,6.4952,0,0,1-2.2656.418h-.418v-1.0117h.418a6.1386,6.1386,0,0,0,3.08-.836,3.0521,3.0521,0,0,0,.6817-.5058c.0293-.044.1172-.0664.2637-.0664a.5558.5558,0,0,1,.374.1318v6.5781l.0224,6.6006a2.1306,2.1306,0,0,0,1.43.3291h1.2979V113.89Z"/><path class="cls-12" d="M596.1615,100.03a6.0907,6.0907,0,0,1-2.5517.55,7.0111,7.0111,0,0,1-2.9268-.66.8364.8364,0,0,1-.1318-.0547c-.0439-.0215-.0811-.04-.11-.0547l-.0439-.0224a1.5608,1.5608,0,0,0,.0664.1982,6.6528,6.6528,0,0,1,.22,1.8477,5.534,5.534,0,0,1-.8574,3.19,2.3674,2.3674,0,0,1-2.0029,1.2324,2.7559,2.7559,0,0,1-1.4512-.4843,4.4347,4.4347,0,0,1-1.7607-3.9385,5.2641,5.2641,0,0,1,.8144-2.97,2.9847,2.9847,0,0,1,2.0235-1.43,2.6571,2.6571,0,0,1,.374-.044,2.1265,2.1265,0,0,1,1.54.6817,6.6352,6.6352,0,0,0,3.4551,1.6718,7.1776,7.1776,0,0,0,.7695.0225c.4248,0,.6895-.0078.792-.0225a5.0268,5.0268,0,0,0,3.3-1.958.7844.7844,0,0,0,.1-.1318.8469.8469,0,0,1,.0762-.11.568.568,0,0,0,.0557-.0654.1421.1421,0,0,1,.0654-.0547.8076.8076,0,0,1,.0879-.0224.6587.6587,0,0,1,.1211-.0108.4187.4187,0,0,1,.33.1533.4792.4792,0,0,1,.11.3741q-11.3306,17.0069-11.5058,17.1162a.3021.3021,0,0,1-.2207.0879.4573.4573,0,0,1-.3184-.1319.4058.4058,0,0,1-.1436-.3076.3969.3969,0,0,1,.0664-.1982q.0221-.066,4.8623-7.2823,2.3307-3.4759,3.5743-5.3242T596.1615,100.03Zm-7.3925-1.3858a1.3537,1.3537,0,0,0-.99-.4179,1.0869,1.0869,0,0,0-.8134.4179,2.468,2.468,0,0,0-.55,1.1875,11.5543,11.5543,0,0,0-.1329,2.002,11.02,11.02,0,0,0,.1436,2.0244,2.1925,2.1925,0,0,0,.583,1.166,1.1765,1.1765,0,0,0,.8359.3955h.0879a1.2017,1.2017,0,0,0,.836-.418,5.4025,5.4025,0,0,0,0-6.3574Zm5.61,12.0342a5.2079,5.2079,0,0,1,.8145-2.959,2.99,2.99,0,0,1,2.0234-1.4189,2.6554,2.6554,0,0,1,.3965-.044,2.4314,2.4314,0,0,1,1.98,1.21,5.6314,5.6314,0,0,1,.8584,3.2119,5.5664,5.5664,0,0,1-.8584,3.2119,2.365,2.365,0,0,1-2.002,1.2315,2.7571,2.7571,0,0,1-1.4521-.4834A4.4606,4.4606,0,0,1,594.3793,110.6784Zm4.1582-3.168a1.3568,1.3568,0,0,0-.99-.4179,1.0888,1.0888,0,0,0-.8145.4179,2.3125,2.3125,0,0,0-.55,1.1329,13.2325,13.2325,0,0,0-.1093,2.0351,11.8147,11.8147,0,0,0,.1093,2.002,1.9625,1.9625,0,0,0,1.0567,1.5615,1.2349,1.2349,0,0,0,.374.0439h.0879a1.2073,1.2073,0,0,0,.8359-.4179,5.4022,5.4022,0,0,0,0-6.3575Z"/><path class="cls-12" d="M31.5365,104.4528a1.2249,1.2249,0,0,1-.9677-.3965,1.4,1.4,0,0,1-.3526-.9677,3.6048,3.6048,0,0,1,1.1993-2.7168,4.0293,4.0293,0,0,1,2.871-1.1328,4.7729,4.7729,0,0,1,3.1348,1.0224,4.3027,4.3027,0,0,1,1.5293,2.6729,6.6305,6.6305,0,0,1,.044.7265,4.1583,4.1583,0,0,1-.7706,2.3975,14.57,14.57,0,0,1-2.4853,2.53q-.7925.6825-2.2,2.0244l-1.2979,1.2314,1.6719.0225a26.3651,26.3651,0,0,0,3.6739-.11c.0585-.0146.1318-.1679.22-.4619a14.0437,14.0437,0,0,0,.3086-1.4961v-.0664h.88v.0664l-.6163,4.0264v.0654H30.2162v-.4179a1.4825,1.4825,0,0,1,.044-.5059q.0219-.022,1.8486-2.09,2.3965-2.6616,3.0791-3.52a6.378,6.378,0,0,0,1.4746-3.6738,3.8477,3.8477,0,0,0-.7588-2.4307,2.5356,2.5356,0,0,0-2.123-.9794,2.4139,2.4139,0,0,0-2.0684,1.1445c-.0293.0586-.0732.14-.1318.2422a.4892.4892,0,0,0-.0664.1318c0,.0147.0371.0215.11.0215a1.1214,1.1214,0,0,1,.8907.3965,1.3719,1.3719,0,0,1,.3418.9238,1.3094,1.3094,0,0,1-.3633.9346A1.2552,1.2552,0,0,1,31.5365,104.4528Z"/><path class="cls-12" d="M41.8324,112.571a1.2794,1.2794,0,0,1,1.32-1.32,1.3034,1.3034,0,0,1,.957.3847,1.2522,1.2522,0,0,1,.3848.9131,1.3311,1.3311,0,0,1-2.6622.0225Z"/><path class="cls-12" d="M55.3842,113.89q-.3735-.0658-3.498-.0654-3.0792,0-3.4532.0654h-.2646v-1.0117h.5722a12.4,12.4,0,0,0,1.65-.0664,1.4051,1.4051,0,0,0,.5274-.2637v-11.374a.537.537,0,0,0-.1758.0664,6.4975,6.4975,0,0,1-2.2656.418h-.418v-1.0127h.418a6.1393,6.1393,0,0,0,3.08-.836,3.0234,3.0234,0,0,0,.6816-.5058c.0293-.044.1172-.0654.2637-.0654a.5555.5555,0,0,1,.374.1318v6.5781l.0225,6.6a2.129,2.129,0,0,0,1.43.33h1.2979V113.89Z"/><path class="cls-12" d="M70.0151,100.0309a6.1052,6.1052,0,0,1-2.5518.55,7.0111,7.0111,0,0,1-2.9268-.66,1.0883,1.0883,0,0,1-.1318-.0547c-.0439-.0225-.081-.041-.11-.0557l-.044-.0214a1.5768,1.5768,0,0,0,.0664.1982,6.6429,6.6429,0,0,1,.22,1.8477,5.5306,5.5306,0,0,1-.8574,3.1894,2.3651,2.3651,0,0,1-2.0029,1.2324,2.7471,2.7471,0,0,1-1.4512-.4843,4.4328,4.4328,0,0,1-1.7607-3.9375,5.2646,5.2646,0,0,1,.8144-2.97,2.9861,2.9861,0,0,1,2.0235-1.4306,2.6587,2.6587,0,0,1,.374-.044,2.1239,2.1239,0,0,1,1.54.6826,6.6346,6.6346,0,0,0,3.4551,1.6719,7.3083,7.3083,0,0,0,.7695.0215c.4248,0,.69-.0068.792-.0215a5.0347,5.0347,0,0,0,3.3-1.958.7894.7894,0,0,0,.1-.1318.7717.7717,0,0,1,.0761-.11.5962.5962,0,0,0,.0557-.0664.1479.1479,0,0,1,.0654-.0547.861.861,0,0,1,.0879-.0215.5869.5869,0,0,1,.1211-.0117.4166.4166,0,0,1,.33.1543.4779.4779,0,0,1,.11.374q-11.3305,17.0069-11.5058,17.1163a.3022.3022,0,0,1-.2207.0878.4572.4572,0,0,1-.3184-.1318.4077.4077,0,0,1-.1435-.3086.39.39,0,0,1,.0664-.1973q.0219-.0673,4.8623-7.2822,2.3306-3.4761,3.5742-5.3242T70.0151,100.0309Zm-7.3926-1.3867a1.3535,1.3535,0,0,0-.99-.4179,1.0869,1.0869,0,0,0-.8135.4179,2.4725,2.4725,0,0,0-.55,1.1885,11.5554,11.5554,0,0,0-.1328,2.002,11.009,11.009,0,0,0,.1435,2.0234,2.1925,2.1925,0,0,0,.583,1.166,1.174,1.174,0,0,0,.836.3965h.0878a1.2056,1.2056,0,0,0,.836-.418,5.4036,5.4036,0,0,0,0-6.3584Zm5.61,12.0342a5.2124,5.2124,0,0,1,.8145-2.959,2.9929,2.9929,0,0,1,2.0234-1.4189,2.6554,2.6554,0,0,1,.3965-.044,2.4313,2.4313,0,0,1,1.98,1.21,5.6336,5.6336,0,0,1,.8584,3.2119,5.5664,5.5664,0,0,1-.8584,3.2119,2.366,2.366,0,0,1-2.0019,1.2324,2.759,2.759,0,0,1-1.4522-.4843A4.46,4.46,0,0,1,68.2328,110.6784Zm4.1582-3.168a1.3566,1.3566,0,0,0-.99-.4179,1.0888,1.0888,0,0,0-.8144.4179,2.3156,2.3156,0,0,0-.55,1.1329,13.2325,13.2325,0,0,0-.1093,2.0351,11.7984,11.7984,0,0,0,.1093,2.002,1.9659,1.9659,0,0,0,1.0567,1.5625,1.2349,1.2349,0,0,0,.374.0439h.0879a1.207,1.207,0,0,0,.8359-.418,5.4036,5.4036,0,0,0,0-6.3584Z"/><path class="cls-12" d="M453.7641,113.89q-.3735-.0658-3.4981-.0664-3.079,0-3.4531.0664h-.2637v-1.0127h.5713a12.4651,12.4651,0,0,0,1.65-.0654,1.43,1.43,0,0,0,.5283-.2637v-11.374a.529.529,0,0,0-.1767.0654,6.4952,6.4952,0,0,1-2.2656.418h-.418v-1.0117h.418a6.136,6.136,0,0,0,3.08-.836,3.0544,3.0544,0,0,0,.6817-.5058c.0293-.044.1172-.0664.2646-.0664a.5533.5533,0,0,1,.3731.1318v6.5781l.0224,6.6006a2.132,2.132,0,0,0,1.4307.3291h1.2969V113.89Z"/><path class="cls-12" d="M458.4067,103.7038a1.202,1.202,0,0,1-.9356-.374,1.3821,1.3821,0,0,1-.34-.9678,2.6574,2.6574,0,0,1,.9892-2.1006,4.21,4.21,0,0,1,2.2881-1.001h.33c.5137,0,.8359.0069.9687.0215a5.3435,5.3435,0,0,1,1.4727.4619,3.2752,3.2752,0,0,1,1.8262,2.0684,2.1032,2.1032,0,0,1,.0664.5937,3.662,3.662,0,0,1-.8028,2.3213,4.444,4.444,0,0,1-2.0136,1.4629c-.0733.0293-.0733.0518,0,.0664a1.4735,1.4735,0,0,0,.2207.0655,4.6843,4.6843,0,0,1,2.2656,1.3974,3.3658,3.3658,0,0,1,.9238,2.32,3.8327,3.8327,0,0,1-.4179,1.7383,4.36,4.36,0,0,1-1.7266,1.8594,5.0081,5.0081,0,0,1-2.6738.7363,5.2675,5.2675,0,0,1-2.5733-.6152,3.1781,3.1781,0,0,1-1.5185-1.65,2.4822,2.4822,0,0,1-.22-1.0781,1.3158,1.3158,0,0,1,.4073-1.001,1.4641,1.4641,0,0,1,1.99.0107,1.3435,1.3435,0,0,1,.3965.99,1.4118,1.4118,0,0,1-.2852.88,1.3,1.3,0,0,1-.77.4843l-.1543.044a4.1383,4.1383,0,0,0,2.7276.99,1.9632,1.9632,0,0,0,1.8261-1.166,5.0449,5.0449,0,0,0,.375-2.2227V109.6a2.819,2.819,0,0,0-1.4082-2.794,4.6166,4.6166,0,0,0-1.3418-.1543l-.9238-.0214-.0664-.045a.8106.8106,0,0,1-.0449-.3515.522.522,0,0,1,.0664-.33.1792.1792,0,0,1,.11-.0654,7.7786,7.7786,0,0,0,1.2764-.11,1.9075,1.9075,0,0,0,1.4736-1.0889,4.8649,4.8649,0,0,0,.5059-2.2988,2.09,2.09,0,0,0-.7705-1.914,1.815,1.815,0,0,0-1.0332-.3086,3.2554,3.2554,0,0,0-1.9356.5937.9657.9657,0,0,0-.1992.1436,1.4385,1.4385,0,0,0-.1758.1865l-.0664.0889c.045.0146.0957.0293.1543.0439a1.0472,1.0472,0,0,1,.7373.418,1.338,1.338,0,0,1,.2969.8574,1.2109,1.2109,0,0,1-.3623.8916A1.27,1.27,0,0,1,458.4067,103.7038Z"/><path class="cls-12" d="M468.3285,112.57a1.2794,1.2794,0,0,1,1.32-1.32,1.3,1.3,0,0,1,.957.3857,1.25,1.25,0,0,1,.3847.9131,1.3311,1.3311,0,0,1-2.6621.0215Z"/><path class="cls-12" d="M480.935,100.6677a2.0788,2.0788,0,0,0-1.3643-.55,3.1524,3.1524,0,0,0-2.5742,1.32,7.64,7.64,0,0,0-1.0332,4.4443l.0215.0879.1758-.2861a2.8151,2.8151,0,0,1,2.4424-1.32,3.6822,3.6822,0,0,1,1.7822.4179,4.5724,4.5724,0,0,1,1.0556.8916,5.558,5.558,0,0,1,.8584,1.2422,5.9215,5.9215,0,0,1,.462,2.3545v.3955a3.8949,3.8949,0,0,1-.11.9463,4.95,4.95,0,0,1-1.3643,2.4424,4.0331,4.0331,0,0,1-2.1113,1.2314,3.7114,3.7114,0,0,1-.88.0879,3.8386,3.8386,0,0,1-.748-.0654,3.8969,3.8969,0,0,1-2.5957-1.76,10.2654,10.2654,0,0,1-1.2988-5.5449,9.7019,9.7019,0,0,1,.8359-4.1572,6.5845,6.5845,0,0,1,2.332-2.7725,4.3893,4.3893,0,0,1,2.5742-.8359,3.0164,3.0164,0,0,1,2.0567.6816,2.3551,2.3551,0,0,1,.7812,1.87,1.21,1.21,0,0,1-.3193.88,1.1187,1.1187,0,0,1-.8467.33,1.1676,1.1676,0,0,1-.8467-.3076,1.1363,1.1363,0,0,1-.3193-.8584A1.0891,1.0891,0,0,1,480.935,100.6677Zm-.9678,5.28a1.92,1.92,0,0,0-1.584-.792,1.7882,1.7882,0,0,0-1.32.5059,4.7686,4.7686,0,0,0-1.0781,3.4766,9.3262,9.3262,0,0,0,.2637,2.706,2.5367,2.5367,0,0,0,.748,1.1221,1.8451,1.8451,0,0,0,1.2539.4619,1.9764,1.9764,0,0,0,1.7168-.8359,2.4371,2.4371,0,0,0,.418-1.1006,14.5386,14.5386,0,0,0,.0879-1.8477V108.94a15.0127,15.0127,0,0,0-.0879-1.8916A2.4371,2.4371,0,0,0,479.9672,105.9479Z"/><path class="cls-12" d="M496.5112,100.03a6.0912,6.0912,0,0,1-2.5518.55,7.0111,7.0111,0,0,1-2.9268-.66.84.84,0,0,1-.1318-.0547c-.0439-.0215-.081-.04-.11-.0547l-.044-.0224a1.5768,1.5768,0,0,0,.0664.1982,6.6528,6.6528,0,0,1,.22,1.8477,5.534,5.534,0,0,1-.8574,3.19,2.3657,2.3657,0,0,1-2.0019,1.2324,2.7562,2.7562,0,0,1-1.4522-.4843,4.4341,4.4341,0,0,1-1.76-3.9385,5.2636,5.2636,0,0,1,.8134-2.97,2.9886,2.9886,0,0,1,2.0244-1.43,2.6283,2.6283,0,0,1,.3741-.044,2.13,2.13,0,0,1,1.54.6817,6.6287,6.6287,0,0,0,3.4541,1.6718,7.179,7.179,0,0,0,.7695.0225c.4248,0,.69-.0078.792-.0225a5.0268,5.0268,0,0,0,3.3-1.958.7844.7844,0,0,0,.1-.1318.8469.8469,0,0,1,.0762-.11.568.568,0,0,0,.0557-.0654.1421.1421,0,0,1,.0654-.0547.8076.8076,0,0,1,.0879-.0224.6587.6587,0,0,1,.1211-.0108.4187.4187,0,0,1,.33.1533.4792.4792,0,0,1,.11.3741q-11.3306,17.0069-11.5058,17.1162a.2989.2989,0,0,1-.2207.0879.4573.4573,0,0,1-.3184-.1319.4058.4058,0,0,1-.1436-.3076.3962.3962,0,0,1,.0665-.1982q.0219-.066,4.8623-7.2823,2.3305-3.4759,3.5742-5.3242T496.5112,100.03Zm-7.3926-1.3858a1.353,1.353,0,0,0-.9893-.4179,1.0872,1.0872,0,0,0-.8144.4179,2.4772,2.4772,0,0,0-.55,1.1875,11.573,11.573,0,0,0-.1319,2.002,11.0352,11.0352,0,0,0,.1426,2.0244,2.206,2.206,0,0,0,.583,1.166,1.1783,1.1783,0,0,0,.836.3955h.0878a1.2016,1.2016,0,0,0,.836-.418,5.4021,5.4021,0,0,0,0-6.3574Zm5.61,12.0342a5.2079,5.2079,0,0,1,.8145-2.959,2.99,2.99,0,0,1,2.0234-1.4189,2.6554,2.6554,0,0,1,.3965-.044,2.4313,2.4313,0,0,1,1.9795,1.21,5.6314,5.6314,0,0,1,.8584,3.2119,5.5664,5.5664,0,0,1-.8584,3.2119,2.365,2.365,0,0,1-2.002,1.2315,2.7571,2.7571,0,0,1-1.4521-.4834A4.4606,4.4606,0,0,1,494.7289,110.6784Zm4.1582-3.168a1.3566,1.3566,0,0,0-.99-.4179,1.089,1.089,0,0,0-.8145.4179,2.3125,2.3125,0,0,0-.55,1.1329,13.2325,13.2325,0,0,0-.1093,2.0351,11.8147,11.8147,0,0,0,.1093,2.002,1.9625,1.9625,0,0,0,1.0567,1.5615,1.2349,1.2349,0,0,0,.374.0439h.0879a1.2073,1.2073,0,0,0,.8359-.4179,5.4022,5.4022,0,0,0,0-6.3575Z"/><path class="cls-12" d="M137.8813,113.89q-.375-.0658-3.4981-.0654-3.079,0-3.4531.0654h-.2646v-1.0117h.5712a12.3891,12.3891,0,0,0,1.65-.0664,1.4144,1.4144,0,0,0,.5284-.2637v-11.374a.5394.5394,0,0,0-.1768.0664,6.4931,6.4931,0,0,1-2.2656.418h-.418v-1.0127h.418a6.1327,6.1327,0,0,0,3.08-.836,3.0017,3.0017,0,0,0,.6817-.5058c.0293-.044.1172-.0654.2646-.0654a.5577.5577,0,0,1,.3741.1318v6.5781l.0214,6.6a2.1345,2.1345,0,0,0,1.4307.33h1.2979V113.89Z"/><path class="cls-12" d="M142.5239,103.7048a1.204,1.204,0,0,1-.9356-.374,1.38,1.38,0,0,1-.3408-.9678,2.6592,2.6592,0,0,1,.9892-2.1016,4.2128,4.2128,0,0,1,2.2891-1.001h.33c.5127,0,.8359.0079.9678.0225a5.3433,5.3433,0,0,1,1.4736.4619,3.2743,3.2743,0,0,1,1.8262,2.0674,2.1486,2.1486,0,0,1,.0664.5947,3.6573,3.6573,0,0,1-.8028,2.32,4.442,4.442,0,0,1-2.0136,1.4629c-.0743.03-.0743.0518,0,.0664a1.4077,1.4077,0,0,0,.22.0664,4.691,4.691,0,0,1,2.2666,1.3965,3.3744,3.3744,0,0,1,.9238,2.3213,3.8445,3.8445,0,0,1-.418,1.7383,4.3578,4.3578,0,0,1-1.7265,1.8584,5.0114,5.0114,0,0,1-2.6738.7373,5.2692,5.2692,0,0,1-2.5743-.6162,3.1651,3.1651,0,0,1-1.5175-1.65,2.4809,2.4809,0,0,1-.2207-1.0772,1.3149,1.3149,0,0,1,.4082-1.0009,1.4613,1.4613,0,0,1,1.99.0107,1.3441,1.3441,0,0,1,.3965.99,1.4081,1.4081,0,0,1-.2862.88,1.3,1.3,0,0,1-.77.4834l-.1543.044a4.1409,4.1409,0,0,0,2.7286.99,1.9632,1.9632,0,0,0,1.8261-1.166,5.0551,5.0551,0,0,0,.3741-2.2217v-.44a2.8185,2.8185,0,0,0-1.4082-2.794,4.6177,4.6177,0,0,0-1.3418-.1533l-.9239-.0224-.0664-.044a.8167.8167,0,0,1-.0439-.3516.5138.5138,0,0,1,.0664-.33.18.18,0,0,1,.1094-.0664,7.6809,7.6809,0,0,0,1.2763-.11,1.9041,1.9041,0,0,0,1.4737-1.0889,4.8529,4.8529,0,0,0,.5058-2.2988,2.0914,2.0914,0,0,0-.77-1.914,1.8253,1.8253,0,0,0-1.0342-.3077,3.2524,3.2524,0,0,0-1.9355.5938.9246.9246,0,0,0-.1983.1426,1.3143,1.3143,0,0,0-.1758.1875l-.0664.0879c.0449.0146.0957.0293.1543.0439a1.0468,1.0468,0,0,1,.7364.418,1.3375,1.3375,0,0,1,.2968.8584,1.21,1.21,0,0,1-.3623.8906A1.2649,1.2649,0,0,1,142.5239,103.7048Z"/><path class="cls-12" d="M152.4457,112.571a1.2779,1.2779,0,0,1,1.32-1.32,1.305,1.305,0,0,1,.9571.3847,1.2521,1.2521,0,0,1,.3847.9131,1.3311,1.3311,0,0,1-2.6621.0225Z"/><path class="cls-12" d="M165.0512,100.6686a2.0768,2.0768,0,0,0-1.3633-.55,3.15,3.15,0,0,0-2.5742,1.3194,7.6434,7.6434,0,0,0-1.0342,4.4443l.0225.0879.1758-.2861a2.8126,2.8126,0,0,1,2.4414-1.3194,3.6838,3.6838,0,0,1,1.7832.418,4.54,4.54,0,0,1,1.0547.8906,5.5158,5.5158,0,0,1,.8593,1.2432,5.9367,5.9367,0,0,1,.461,2.3535v.3965a3.9467,3.9467,0,0,1-.1094.9463,4.9419,4.9419,0,0,1-1.3652,2.4414,4.0423,4.0423,0,0,1-2.1114,1.2324,3.7,3.7,0,0,1-.88.0879,3.8411,3.8411,0,0,1-.748-.0664,3.8978,3.8978,0,0,1-2.5957-1.76,10.2619,10.2619,0,0,1-1.2979-5.5439,9.6948,9.6948,0,0,1,.836-4.1582,6.58,6.58,0,0,1,2.332-2.7715,4.38,4.38,0,0,1,2.5742-.8359,3.02,3.02,0,0,1,2.0567.6816,2.3583,2.3583,0,0,1,.7812,1.87,1.2123,1.2123,0,0,1-.32.88,1.12,1.12,0,0,1-.8457.33,1.1678,1.1678,0,0,1-.8476-.3086,1.1346,1.1346,0,0,1-.3184-.8574A1.0873,1.0873,0,0,1,165.0512,100.6686Zm-.9668,5.28a1.9219,1.9219,0,0,0-1.585-.792,1.7818,1.7818,0,0,0-1.3193.5059,4.7658,4.7658,0,0,0-1.0781,3.4756,9.3261,9.3261,0,0,0,.2636,2.706,2.5267,2.5267,0,0,0,.7481,1.1221,1.8417,1.8417,0,0,0,1.2539.4619,1.9765,1.9765,0,0,0,1.7168-.8359,2.4446,2.4446,0,0,0,.418-1.1,14.5674,14.5674,0,0,0,.0879-1.8487V108.94a15.0237,15.0237,0,0,0-.0879-1.8916A2.4446,2.4446,0,0,0,164.0844,105.9489Z"/><path class="cls-12" d="M180.6274,100.0309a6.104,6.104,0,0,1-2.5508.55,7.0113,7.0113,0,0,1-2.9277-.66,1.07,1.07,0,0,1-.1309-.0547l-.1113-.0557-.043-.0214a1.43,1.43,0,0,0,.0664.1982,6.6461,6.6461,0,0,1,.2188,1.8477,5.5231,5.5231,0,0,1-.8575,3.1894,2.3625,2.3625,0,0,1-2.0019,1.2324,2.7417,2.7417,0,0,1-1.4512-.4843,4.4323,4.4323,0,0,1-1.76-3.9375,5.2638,5.2638,0,0,1,.8125-2.97,2.9917,2.9917,0,0,1,2.0254-1.4306,2.62,2.62,0,0,1,.3731-.044,2.1278,2.1278,0,0,1,1.541.6826,6.6251,6.6251,0,0,0,3.4531,1.6719,7.3083,7.3083,0,0,0,.7695.0215c.4258,0,.69-.0068.793-.0215a5.0349,5.0349,0,0,0,3.2988-1.958.7894.7894,0,0,0,.1-.1318.9954.9954,0,0,1,.0761-.11.5842.5842,0,0,0,.0567-.0664.1462.1462,0,0,1,.0644-.0547c.0235-.0068.0528-.0146.0879-.0215a.5932.5932,0,0,1,.1211-.0117.4166.4166,0,0,1,.33.1543.4823.4823,0,0,1,.1113.374q-11.332,17.0069-11.5058,17.1163a.3009.3009,0,0,1-.2208.0878.4554.4554,0,0,1-.3183-.1318.4088.4088,0,0,1-.1445-.3086.4.4,0,0,1,.0664-.1973q.0234-.0673,4.8632-7.2822,2.3292-3.4761,3.5743-5.3242Q180.6489,100.03,180.6274,100.0309Zm-7.3926-1.3867a1.3493,1.3493,0,0,0-.9883-.4179,1.0841,1.0841,0,0,0-.8144.4179,2.4737,2.4737,0,0,0-.5508,1.1885,11.591,11.591,0,0,0-.1309,2.002,11.023,11.023,0,0,0,.1426,2.0234,2.2057,2.2057,0,0,0,.582,1.166,1.1757,1.1757,0,0,0,.836.3965h.0879a1.2023,1.2023,0,0,0,.8359-.418,5.4,5.4,0,0,0,0-6.3584Zm5.6113,12.0342a5.2124,5.2124,0,0,1,.8145-2.959,2.9907,2.9907,0,0,1,2.0234-1.4189,2.6554,2.6554,0,0,1,.3965-.044,2.43,2.43,0,0,1,1.9785,1.21,5.6338,5.6338,0,0,1,.8594,3.2119,5.5666,5.5666,0,0,1-.8594,3.2119,2.3648,2.3648,0,0,1-2.0019,1.2324,2.7559,2.7559,0,0,1-1.4512-.4843A4.4573,4.4573,0,0,1,178.8461,110.6784Zm4.1582-3.168a1.3568,1.3568,0,0,0-.99-.4179,1.0874,1.0874,0,0,0-.8145.4179,2.3256,2.3256,0,0,0-.5507,1.1329,13.3475,13.3475,0,0,0-.1094,2.0351,11.894,11.894,0,0,0,.1094,2.002,1.9678,1.9678,0,0,0,1.0566,1.5625,1.2423,1.2423,0,0,0,.375.0439h.0879a1.2089,1.2089,0,0,0,.8359-.418,5.4078,5.4078,0,0,0,0-6.3584Z"/><path class="cls-12" d="M342.2778,103.7048a1.2054,1.2054,0,0,1-.9356-.374,1.3835,1.3835,0,0,1-.34-.9678,2.6589,2.6589,0,0,1,.9892-2.1016A4.21,4.21,0,0,1,344.28,99.26h.33c.5137,0,.8359.0079.9687.0225a5.3378,5.3378,0,0,1,1.4727.4619,3.2718,3.2718,0,0,1,1.8262,2.0674,2.1109,2.1109,0,0,1,.0664.5947,3.6573,3.6573,0,0,1-.8028,2.32,4.4367,4.4367,0,0,1-2.0136,1.4629c-.0733.03-.0733.0518,0,.0664a1.4343,1.4343,0,0,0,.2207.0664,4.6834,4.6834,0,0,1,2.2656,1.3965,3.37,3.37,0,0,1,.9238,2.3213,3.8327,3.8327,0,0,1-.4179,1.7383,4.3586,4.3586,0,0,1-1.7266,1.8584,5.0089,5.0089,0,0,1-2.6738.7373,5.268,5.268,0,0,1-2.5733-.6162,3.1712,3.1712,0,0,1-1.5185-1.65,2.4809,2.4809,0,0,1-.22-1.0772,1.3142,1.3142,0,0,1,.4073-1.0009,1.4613,1.4613,0,0,1,1.99.0107,1.34,1.34,0,0,1,.3965.99,1.4134,1.4134,0,0,1-.2852.88,1.3025,1.3025,0,0,1-.7705.4834l-.1543.044a4.1383,4.1383,0,0,0,2.7276.99,1.9632,1.9632,0,0,0,1.8261-1.166,5.04,5.04,0,0,0,.375-2.2217v-.44a2.82,2.82,0,0,0-1.4082-2.794,4.6276,4.6276,0,0,0-1.3418-.1533l-.9238-.0224-.0664-.044a.8108.8108,0,0,1-.0449-.3516.52.52,0,0,1,.0664-.33.1818.1818,0,0,1,.11-.0664,7.6812,7.6812,0,0,0,1.2764-.11,1.9055,1.9055,0,0,0,1.4736-1.0889,4.8624,4.8624,0,0,0,.5059-2.2988,2.0917,2.0917,0,0,0-.77-1.914,1.8221,1.8221,0,0,0-1.0332-.3077,3.2486,3.2486,0,0,0-1.9356.5938.9524.9524,0,0,0-.1992.1426,1.44,1.44,0,0,0-.1758.1875l-.0664.0879c.045.0146.0957.0293.1543.0439a1.05,1.05,0,0,1,.7373.418,1.3426,1.3426,0,0,1,.2969.8584,1.21,1.21,0,0,1-.3623.8906A1.2673,1.2673,0,0,1,342.2778,103.7048Z"/><path class="cls-12" d="M360.6479,113.89q-.3091-.0658-2.8379-.0654-2.6412,0-2.9483.0654h-.1972v-1.0117h.6816a4.6085,4.6085,0,0,0,1.166-.11.3935.3935,0,0,0,.2637-.22q.0221-.044.0215-1.1875V110.26H351.1v-1.0117l3.3223-5.082q3.3662-5.1036,3.41-5.126a1.1547,1.1547,0,0,1,.461-.0439h.3965l.1318.1318v10.12h2.0244V110.26h-2.0244v1.1221c0,.6016.0029.9541.0107,1.0557a.4056.4056,0,0,0,.1211.2646,2.7978,2.7978,0,0,0,1.2539.1758h.6387V113.89Zm-3.7178-4.6416V101.9l-4.8184,7.3262,2.3985.0224Z"/><path class="cls-12" d="M363.2,112.571a1.2794,1.2794,0,0,1,1.32-1.32,1.3036,1.3036,0,0,1,.9571.3847,1.2521,1.2521,0,0,1,.3847.9131,1.3311,1.3311,0,0,1-2.6621.0225Z"/><path class="cls-12" d="M376.7524,113.89q-.375-.0658-3.4981-.0654-3.0805,0-3.4541.0654h-.2646v-1.0117h.5722a12.4,12.4,0,0,0,1.65-.0664,1.4051,1.4051,0,0,0,.5274-.2637v-11.374a.537.537,0,0,0-.1758.0664,6.4931,6.4931,0,0,1-2.2656.418h-.418v-1.0127h.418a6.1357,6.1357,0,0,0,3.08-.836,3.0218,3.0218,0,0,0,.6817-.5058c.0293-.044.1172-.0654.2637-.0654a.5558.5558,0,0,1,.374.1318v6.5781l.0224,6.6a2.13,2.13,0,0,0,1.43.33h1.2979V113.89Z"/><path class="cls-12" d="M391.3823,100.0309a6.1055,6.1055,0,0,1-2.5518.55,7.0111,7.0111,0,0,1-2.9268-.66,1.0817,1.0817,0,0,1-.1318-.0547c-.0439-.0225-.0811-.041-.11-.0557l-.0439-.0214a1.5768,1.5768,0,0,0,.0664.1982,6.6429,6.6429,0,0,1,.22,1.8477,5.5306,5.5306,0,0,1-.8574,3.1894,2.3637,2.3637,0,0,1-2.0019,1.2324,2.7475,2.7475,0,0,1-1.4522-.4843,4.4323,4.4323,0,0,1-1.76-3.9375,5.2642,5.2642,0,0,1,.8135-2.97,2.99,2.99,0,0,1,2.0244-1.4306,2.6283,2.6283,0,0,1,.3741-.044,2.1273,2.1273,0,0,1,1.54.6826,6.6281,6.6281,0,0,0,3.4541,1.6719,7.3083,7.3083,0,0,0,.7695.0215c.4248,0,.69-.0068.792-.0215a5.0347,5.0347,0,0,0,3.3-1.958.7844.7844,0,0,0,.1-.1318.7779.7779,0,0,1,.0762-.11.5962.5962,0,0,0,.0557-.0664.1479.1479,0,0,1,.0654-.0547.861.861,0,0,1,.0879-.0215.5862.5862,0,0,1,.1211-.0117.4166.4166,0,0,1,.33.1543.4779.4779,0,0,1,.11.374q-11.3306,17.0069-11.5058,17.1163a.2992.2992,0,0,1-.2207.0878.4572.4572,0,0,1-.3184-.1318.4078.4078,0,0,1-.1436-.3086.3914.3914,0,0,1,.0664-.1973q.022-.0673,4.8624-7.2822,2.3306-3.4761,3.5742-5.3242T391.3823,100.0309ZM383.99,98.6442A1.353,1.353,0,0,0,383,98.2263a1.0872,1.0872,0,0,0-.8144.4179,2.48,2.48,0,0,0-.55,1.1885,11.5722,11.5722,0,0,0-.1319,2.002,11.023,11.023,0,0,0,.1426,2.0234,2.206,2.206,0,0,0,.583,1.166,1.1757,1.1757,0,0,0,.8359.3965h.0879a1.2056,1.2056,0,0,0,.836-.418,5.4036,5.4036,0,0,0,0-6.3584Zm5.61,12.0342a5.2124,5.2124,0,0,1,.8145-2.959,2.9929,2.9929,0,0,1,2.0234-1.4189,2.6554,2.6554,0,0,1,.3965-.044,2.4314,2.4314,0,0,1,1.9795,1.21,5.6336,5.6336,0,0,1,.8584,3.2119,5.5664,5.5664,0,0,1-.8584,3.2119,2.366,2.366,0,0,1-2.002,1.2324,2.7589,2.7589,0,0,1-1.4521-.4843A4.4594,4.4594,0,0,1,389.6,110.6784Zm4.1582-3.168a1.3566,1.3566,0,0,0-.99-.4179,1.0888,1.0888,0,0,0-.8145.4179,2.3163,2.3163,0,0,0-.55,1.1329,13.2325,13.2325,0,0,0-.1093,2.0351,11.7984,11.7984,0,0,0,.1093,2.002,1.9659,1.9659,0,0,0,1.0567,1.5625,1.2349,1.2349,0,0,0,.374.0439h.0879a1.207,1.207,0,0,0,.8359-.418,5.4036,5.4036,0,0,0,0-6.3584Z"/><path class="cls-12" d="M236.7,103.7038a1.2,1.2,0,0,1-.9355-.374,1.3777,1.3777,0,0,1-.3408-.9678,2.655,2.655,0,0,1,.99-2.1006,4.21,4.21,0,0,1,2.2881-1.001h.33c.5127,0,.8359.0069.9677.0215a5.34,5.34,0,0,1,1.4737.4619,3.2753,3.2753,0,0,1,1.8261,2.0684,2.1369,2.1369,0,0,1,.0664.5937,3.6619,3.6619,0,0,1-.8027,2.3213,4.449,4.449,0,0,1-2.0137,1.4629c-.0732.0293-.0732.0518,0,.0664a1.4486,1.4486,0,0,0,.22.0655,4.6918,4.6918,0,0,1,2.2666,1.3974,3.3658,3.3658,0,0,1,.9238,2.32,3.8445,3.8445,0,0,1-.418,1.7383,4.3594,4.3594,0,0,1-1.7265,1.8594,5.0082,5.0082,0,0,1-2.6739.7363,5.2644,5.2644,0,0,1-2.5732-.6152,3.1788,3.1788,0,0,1-1.5186-1.65,2.4837,2.4837,0,0,1-.22-1.0781,1.3161,1.3161,0,0,1,.4072-1.001,1.4642,1.4642,0,0,1,1.99.0107,1.3439,1.3439,0,0,1,.3965.99,1.4065,1.4065,0,0,1-.2862.88,1.2942,1.2942,0,0,1-.7695.4843l-.1543.044a4.1383,4.1383,0,0,0,2.7275.99,1.9632,1.9632,0,0,0,1.8262-1.166,5.0617,5.0617,0,0,0,.374-2.2227V109.6a2.8174,2.8174,0,0,0-1.4082-2.794,4.6062,4.6062,0,0,0-1.3418-.1543l-.9238-.0214-.0664-.045a.8164.8164,0,0,1-.0439-.3515.522.522,0,0,1,.0664-.33.1765.1765,0,0,1,.11-.0654,7.7576,7.7576,0,0,0,1.2754-.11,1.9076,1.9076,0,0,0,1.4746-1.0889,4.8661,4.8661,0,0,0,.5059-2.2988,2.09,2.09,0,0,0-.77-1.914,1.8164,1.8164,0,0,0-1.0342-.3086,3.26,3.26,0,0,0-1.9356.5937.96.96,0,0,0-.1982.1436,1.3725,1.3725,0,0,0-.1758.1865l-.0664.0889c.0449.0146.0957.0293.1543.0439a1.0472,1.0472,0,0,1,.7373.418,1.338,1.338,0,0,1,.2969.8574,1.2117,1.2117,0,0,1-.3633.8916A1.2682,1.2682,0,0,1,236.7,103.7038Z"/><path class="cls-12" d="M255.07,113.89q-.3091-.0658-2.8379-.0664-2.6412,0-2.9483.0664h-.1982v-1.0127h.6816a4.6282,4.6282,0,0,0,1.166-.1093.3951.3951,0,0,0,.2647-.22q.0219-.044.0215-1.1885v-1.1h-5.6973v-1.0127l3.3213-5.082q3.3662-5.1034,3.41-5.126a1.1611,1.1611,0,0,1,.462-.0439h.3964l.1319.1318v10.12h2.0234V110.26h-2.0234v1.1221c0,.6016.0029.9531.0107,1.0557a.4049.4049,0,0,0,.1211.2636,2.7823,2.7823,0,0,0,1.2539.1758h.6377V113.89Zm-3.7188-4.6426V101.9l-4.8174,7.3262,2.3975.0214Z"/><path class="cls-12" d="M257.6215,112.57a1.2792,1.2792,0,0,1,1.32-1.32,1.3006,1.3006,0,0,1,.9571.3857,1.25,1.25,0,0,1,.3847.9131,1.3311,1.3311,0,0,1-2.6621.0215Z"/><path class="cls-12" d="M271.1742,113.89q-.375-.0658-3.499-.0664-3.0791,0-3.4531.0664h-.2647v-1.0127h.5723a12.4651,12.4651,0,0,0,1.65-.0654,1.42,1.42,0,0,0,.5273-.2637v-11.374a.5258.5258,0,0,0-.1757.0654,6.4953,6.4953,0,0,1-2.2657.418h-.4179v-1.0117h.4179a6.1387,6.1387,0,0,0,3.08-.836,3.0544,3.0544,0,0,0,.6817-.5058c.0293-.044.1171-.0664.2636-.0664a.5559.5559,0,0,1,.3741.1318v6.5781l.0224,6.6006a2.13,2.13,0,0,0,1.43.3291h1.2979V113.89Z"/><path class="cls-12" d="M285.8041,100.03a6.0907,6.0907,0,0,1-2.5517.55,7.0111,7.0111,0,0,1-2.9268-.66.8364.8364,0,0,1-.1318-.0547c-.044-.0215-.0811-.04-.11-.0547l-.0439-.0224a1.5608,1.5608,0,0,0,.0664.1982,6.6528,6.6528,0,0,1,.22,1.8477,5.534,5.534,0,0,1-.8574,3.19,2.366,2.366,0,0,1-2.002,1.2324,2.7562,2.7562,0,0,1-1.4521-.4843,4.4341,4.4341,0,0,1-1.76-3.9385,5.2629,5.2629,0,0,1,.8135-2.97,2.9886,2.9886,0,0,1,2.0244-1.43,2.6289,2.6289,0,0,1,.374-.044,2.13,2.13,0,0,1,1.54.6817,6.6287,6.6287,0,0,0,3.4541,1.6718,7.1776,7.1776,0,0,0,.7695.0225c.4248,0,.69-.0078.792-.0225a5.0268,5.0268,0,0,0,3.3-1.958.7844.7844,0,0,0,.1-.1318.8266.8266,0,0,1,.0762-.11.5691.5691,0,0,0,.0556-.0654.1423.1423,0,0,1,.0655-.0547.7956.7956,0,0,1,.0879-.0224.6587.6587,0,0,1,.1211-.0108.4184.4184,0,0,1,.33.1533.48.48,0,0,1,.11.3741q-11.3305,17.0069-11.5059,17.1162a.2987.2987,0,0,1-.2207.0879.4571.4571,0,0,1-.3183-.1319.4058.4058,0,0,1-.1436-.3076.3969.3969,0,0,1,.0664-.1982q.0221-.066,4.8623-7.2823,2.3306-3.4759,3.5742-5.3242T285.8041,100.03Zm-7.3926-1.3858a1.3529,1.3529,0,0,0-.9892-.4179,1.0874,1.0874,0,0,0-.8145.4179,2.4781,2.4781,0,0,0-.55,1.1875,11.5749,11.5749,0,0,0-.1318,2.002,11.0352,11.0352,0,0,0,.1426,2.0244,2.206,2.206,0,0,0,.583,1.166,1.1782,1.1782,0,0,0,.8359.3955h.0879a1.2015,1.2015,0,0,0,.8359-.418,5.4021,5.4021,0,0,0,0-6.3574Zm5.61,12.0342a5.2079,5.2079,0,0,1,.8145-2.959,2.99,2.99,0,0,1,2.0234-1.4189,2.6554,2.6554,0,0,1,.3965-.044,2.4314,2.4314,0,0,1,1.9795,1.21,5.6321,5.6321,0,0,1,.8584,3.2119,5.5672,5.5672,0,0,1-.8584,3.2119,2.365,2.365,0,0,1-2.002,1.2315,2.7566,2.7566,0,0,1-1.4521-.4834A4.4606,4.4606,0,0,1,284.0219,110.6784Zm4.1582-3.168a1.3568,1.3568,0,0,0-.99-.4179,1.0888,1.0888,0,0,0-.8145.4179,2.3117,2.3117,0,0,0-.55,1.1329,13.2293,13.2293,0,0,0-.1094,2.0351,11.8114,11.8114,0,0,0,.1094,2.002,1.9623,1.9623,0,0,0,1.0567,1.5615,1.2345,1.2345,0,0,0,.374.0439h.0879a1.2073,1.2073,0,0,0,.8359-.4179,5.4022,5.4022,0,0,0,0-6.3575Z"/><rect class="cls-10" x="286.5403" y="13.3601" width="57.7454" height="23.3086"/><rect class="cls-10" x="346.4917" y="38.0958" width="51.2196" height="23.3086" rx="7.0262"/><path class="cls-12" d="M352.2914,55.6647a2.8936,2.8936,0,0,1-2.22-.8994,3.1867,3.1867,0,0,1-.84-2.2607,5.4525,5.4525,0,0,1,.5-2.1992,6.586,6.586,0,0,1,1.38-1.96,5.5632,5.5632,0,0,1,1.9-1.24,3.7831,3.7831,0,0,1,1.08-.26q.019-.0206,2.8-.02h2.76a.6981.6981,0,0,1,.4.6006.7993.7993,0,0,1-.62.8193,9.5947,9.5947,0,0,1-1.3008.04h-1.1992l.1.2a3.92,3.92,0,0,1,.36,1.7,5.4078,5.4078,0,0,1-1.7,3.9395,5.1559,5.1559,0,0,1-2.58,1.44A3.9226,3.9226,0,0,1,352.2914,55.6647Zm3.54-5.7793q0-1.6009-1.7-1.6a2.7027,2.7027,0,0,0-2.0391.86,5.7711,5.7711,0,0,0-1.2,2.74,5.9465,5.9465,0,0,0-.16,1.22,1.945,1.945,0,0,0,.43,1.33,1.5278,1.5278,0,0,0,1.21.49,2.7019,2.7019,0,0,0,1.98-.9405,5.81,5.81,0,0,0,1.26-2.64A6.903,6.903,0,0,0,355.8315,49.8854Z"/><path class="cls-12" d="M366.1518,48.5046a.4347.4347,0,0,1,.28-.3994h12.7392a.438.438,0,0,1,.3008.3994.4555.4555,0,0,1-.28.3808l-6.36.02h-6.3594A.3962.3962,0,0,1,366.1518,48.5046Zm0,3.8808a.3963.3963,0,0,1,.32-.4h12.72a.71.71,0,0,0,.09.07.7419.7419,0,0,1,.1.08.3162.3162,0,0,1,.06.1.3855.3855,0,0,1,.03.15.4372.4372,0,0,1-.3008.4H366.4321A.434.434,0,0,1,366.1518,52.3854Z"/><path class="cls-12" d="M393.9125,55.445q-.3413-.06-3.1806-.06-2.7995,0-3.14.06h-.24v-.92h.5205a11.2285,11.2285,0,0,0,1.5-.0606,1.2783,1.2783,0,0,0,.4795-.2392v-10.34a.4818.4818,0,0,0-.16.06,5.88,5.88,0,0,1-2.06.38h-.38v-.92h.38a5.58,5.58,0,0,0,2.8-.76,2.8135,2.8135,0,0,0,.62-.46c.0263-.04.1064-.0605.24-.0605a.5058.5058,0,0,1,.34.12v5.98l.0195,6a1.9378,1.9378,0,0,0,1.3008.3h1.18v.92Z"/><path class="cls-12" d="M300.3246,21.5974a.7719.7719,0,0,1,.48.15.5034.5034,0,0,1,.2.43l-1.5195,6.36a1.7562,1.7562,0,0,0-.0205.3193q0,.8409.56.8408a.8653.8653,0,0,0,.4-.1806,4.54,4.54,0,0,0,.82-1.92q.12-.4.2-.42a.6008.6008,0,0,1,.1992-.0195h.08a1.7827,1.7827,0,0,1,.24.01.1794.1794,0,0,1,.1.05.161.161,0,0,1,.04.12,1.783,1.783,0,0,1-.06.3,5.2213,5.2213,0,0,1-1.08,2.32,2.0039,2.0039,0,0,1-.64.42,2.1582,2.1582,0,0,1-.48.04,1.8052,1.8052,0,0,1-1.76-.98.9192.9192,0,0,1-.1-.2393c0-.0273-.0674.0264-.2.1592a3.286,3.286,0,0,1-2.36,1.08,3.7372,3.7372,0,0,1-1.86-.46q-.22.88-.4795,1.9405-.42,1.639-.5,1.91a1,1,0,0,1-.24.43,1.0178,1.0178,0,0,1-.68.28.7225.7225,0,0,1-.48-.17.6066.6066,0,0,1-.22-.4307q0-.1992,1.47-6.04,1.4707-5.8389,1.53-5.96a.9077.9077,0,0,1,.92-.56.817.817,0,0,1,.45.17.4922.4922,0,0,1,.19.41q0,.24-.6192,2.68-.6212,2.44-.66,2.74a4.2555,4.2555,0,0,0-.04.7q0,1.62,1.34,1.62a2.2085,2.2085,0,0,0,.7-.12,3.2829,3.2829,0,0,0,1.6-1.42l.1006-.1406.72-2.8594q.7193-2.84.8-3.0205A.8867.8867,0,0,1,300.3246,21.5974Z"/><path class="cls-12" d="M308.684,23.277a.4349.4349,0,0,1,.28-.3994h12.7392a.4382.4382,0,0,1,.3008.3994.4553.4553,0,0,1-.28.3809l-6.36.0195h-6.3594A.3963.3963,0,0,1,308.684,23.277Zm0,3.8809a.3963.3963,0,0,1,.32-.4h12.72a.7122.7122,0,0,0,.09.07.7278.7278,0,0,1,.1.08.3138.3138,0,0,1,.06.1.3855.3855,0,0,1,.03.15.4371.4371,0,0,1-.3008.3994H308.9643A.4339.4339,0,0,1,308.684,27.1579Z"/><path class="cls-12" d="M330.0444,18.5173a3.529,3.529,0,0,1,3.06-1.62,3.69,3.69,0,0,1,2.56,1,4.3544,4.3544,0,0,1,.92,1.36,11.442,11.442,0,0,1,.74,4.56,10.44,10.44,0,0,1-.86,4.74,3.4594,3.4594,0,0,1-1.64,1.68,3.766,3.766,0,0,1-1.7.4209,3.5251,3.5251,0,0,1-3.36-2.1006,10.44,10.44,0,0,1-.8594-4.74,15.56,15.56,0,0,1,.25-3.0694A6.7065,6.7065,0,0,1,330.0444,18.5173Zm4.5-.24a1.847,1.847,0,0,0-1.42-.64,1.91,1.91,0,0,0-1.44.64,2.4155,2.4155,0,0,0-.6,1.12,12.355,12.355,0,0,0-.2,2.28q0,.12-.01.78t-.01,1.1q0,1.92.04,2.68a11.4106,11.4106,0,0,0,.2393,2.0107,2.2747,2.2747,0,0,0,.6006,1.05,1.7729,1.7729,0,0,0,1.38.6,1.7512,1.7512,0,0,0,1.36-.6,2.2729,2.2729,0,0,0,.6-1.05,11.4973,11.4973,0,0,0,.24-2.0107q.04-.7588.04-2.68c0-.293-.0039-.66-.01-1.1-.0078-.44-.0107-.7-.0107-.78a12.2655,12.2655,0,0,0-.2-2.28A2.4173,2.4173,0,0,0,334.5444,18.277Z"/></g></svg>